<svg xmlns="http://www.w3.org/2000/svg" fill="none" viewBox="0 0 48 48" id="Magic-Wand--Streamline-Kameleon.svg" height="48" width="48"><desc>Magic Wand Streamline Icon: https://streamlinehq.com</desc><path fill="#32bea6" d="M24 48c13.254850909090909 0 24 -10.745149090909091 24 -24S37.254850909090905 0 24 0 0 10.745149090909091 0 24s10.745149090909091 24 24 24Z" stroke-width="1"></path><path fill="#3e3e3f" d="m10.90930909090909 34.26130909090909 3.7026327272727273 3.7026327272727273 15.427636363636362 -15.427636363636362 -3.7026327272727273 -3.7026327272727273 -15.427636363636362 15.427636363636362Z" stroke-width="1"></path><path fill="#e2e4e5" d="m26.336945454545454 18.833585454545453 3.7026327272727273 3.7026327272727273 5.553949090909091 -5.553949090909091 -3.7026327272727273 -3.7026327272727273 -5.553949090909091 5.553949090909091Z" stroke-width="1"></path><path fill="#fff" d="m26.33690181818182 18.833323636363637 1.8513163636363636 1.8513163636363636 5.553949090909091 -5.553949090909091 -1.8513163636363636 -1.8513163636363636 -5.553949090909091 5.553949090909091Z" stroke-width="1"></path><path fill="#5b5c5f" d="m28.188305454545457 20.684203636363634 -1.8513163636363636 -1.8513163636363636 -15.427636363636362 15.427636363636362 1.8513163636363636 1.8513163636363636 15.427636363636362 -15.427636363636362Z" stroke-width="1"></path><path fill="#fbe158" d="M18.344727272727273 14.551069090909092c-0.010036363636363635 0.001309090909090909 -0.017454545454545455 0.010036363636363635 -0.017454545454545455 0.02007272727272727v0.04014545454545454c0 0.006981818181818182 0.005236363636363636 0.012654545454545455 0.011781818181818181 0.013527272727272726 1.3714909090909089 0.18676363636363635 2.3799272727272727 1.1938909090909091 2.5688727272727268 2.5640727272727273 0.001309090909090909 0.010036363636363635 0.010036363636363635 0.017454545454545455 0.02007272727272727 0.017454545454545455h0.04014545454545454c0.006981818181818182 0 0.012654545454545455 -0.005236363636363636 0.013527272727272726 -0.011781818181818181 0.18676363636363635 -1.3714909090909089 1.1938909090909091 -2.3799272727272727 2.5640727272727273 -2.5693090909090905 0.010036363636363635 -0.001309090909090909 0.017454545454545455 -0.010036363636363635 0.017454545454545455 -0.02007272727272727v-0.04014545454545454c0 -0.006981818181818182 -0.005236363636363636 -0.012654545454545455 -0.011781818181818181 -0.013527272727272726 -1.3714909090909089 -0.18676363636363635 -2.3799272727272727 -1.1938909090909091 -2.5693090909090905 -2.5640727272727273 -0.001309090909090909 -0.010036363636363635 -0.010036363636363635 -0.017454545454545455 -0.02007272727272727 -0.017454545454545455h-0.02836363636363636c-0.013527272727272726 0 -0.024872727272727272 0.010036363636363635 -0.027054545454545453 0.023563636363636363 -0.19025454545454545 1.365381818181818 -1.1951999999999998 2.369018181818182 -2.561890909090909 2.5575272727272726Z" stroke-width="1"></path><path fill="#fbe158" d="M32.30836363636364 25.460116363636363c-0.010036363636363635 0.001309090909090909 -0.017454545454545455 0.010036363636363635 -0.017454545454545455 0.02007272727272727v0.04581818181818181c0 0.003490909090909091 0.002618181818181818 0.006109090909090909 0.006109090909090909 0.006545454545454545 1.3745454545454545 0.18458181818181818 2.3855999999999997 1.1925818181818182 2.574981818181818 2.5649454545454544 0.001309090909090909 0.010036363636363635 0.010036363636363635 0.017454545454545455 0.02007272727272727 0.017454545454545455h0.02836363636363636c0.013527272727272726 0 0.02530909090909091 -0.010036363636363635 0.027054545454545453 -0.023563636363636363 0.1898181818181818 -1.359709090909091 1.1873454545454545 -2.3602909090909088 2.544872727272727 -2.554909090909091 0.02007272727272727 -0.002181818181818182 0.03490909090909091 -0.019636363636363636 0.03490909090909091 -0.03970909090909091v-0.02225454545454545c0 -0.006981818181818182 -0.005236363636363636 -0.012654545454545455 -0.011781818181818181 -0.013527272727272726 -1.3714909090909089 -0.18676363636363635 -2.3799272727272727 -1.1938909090909091 -2.5693090909090905 -2.5640727272727273 -0.001309090909090909 -0.010036363636363635 -0.010036363636363635 -0.017454545454545455 -0.02007272727272727 -0.017454545454545455h-0.02836363636363636c-0.013527272727272726 0 -0.02530909090909091 0.010036363636363635 -0.027054545454545453 0.023563636363636363 -0.19069090909090908 1.3649454545454545 -1.1956363636363636 2.368581818181818 -2.5623272727272726 2.5570909090909093Z" stroke-width="1"></path><path fill="#fbe158" d="M34.919563636363634 12.166734545454545c-0.006109090909090909 0.00043636363636363637 -0.010472727272727272 0.005672727272727272 -0.010472727272727272 0.011781818181818181v0.01658181818181818c0 0.007854545454545454 0.005672727272727272 0.014836363636363637 0.013527272727272726 0.01570909090909091 0.7998545454545454 0.11170909090909091 1.3867636363636362 0.7025454545454546 1.4932363636363637 1.5050181818181816h0.04058181818181818c0.1069090909090909 -0.8068363636363636 0.6999272727272727 -1.3998545454545455 1.5067636363636363 -1.5067636363636363v-0.04058181818181818c-0.8068363636363636 -0.1069090909090909 -1.3998545454545455 -0.6999272727272727 -1.5067636363636363 -1.5067636363636363h-0.04058181818181818c-0.10647272727272726 0.8029090909090909 -0.6946909090909091 1.394181818181818 -1.496290909090909 1.5050181818181816Z" stroke-width="1"></path></svg>