<svg xmlns="http://www.w3.org/2000/svg" fill="none" viewBox="0 0 48 48" id="Pen--Streamline-Kameleon.svg" height="48" width="48"><desc>Pen Streamline Icon: https://streamlinehq.com</desc><path fill="#25b7d3" d="M24 48c13.254981818181818 0 24 -10.74501818181818 24 -24S37.25498181818182 0 24 0 0 10.74501818181818 0 24s10.74501818181818 24 24 24Z" stroke-width="1"></path><path fill="#facb1b" d="M16.49629090909091 36.2016c-1.8375272727272727 1.8370909090909089 -6.459490909090909 1.7615999999999998 -6.459490909090909 1.7615999999999998s-0.07592727272727272 -4.621527272727272 1.7615999999999998 -6.459490909090909c1.8375272727272727 -1.8375272727272727 4.110545454545455 -2.544436363636364 5.676218181818181 -0.9787636363636363 1.566109090909091 1.566109090909091 0.8592 3.8386909090909094 -0.9783272727272727 5.676654545454546Z" stroke-width="1"></path><path fill="#fbe158" d="M11.798399999999999 31.503709090909087C10.048145454545455 33.253527272727275 10.033745454545453 37.525090909090906 10.036363636363635 37.92872727272727l7.420363636363636 -7.420363636363636c-1.5652363636363635 -1.5425454545454544 -3.827345454545455 -0.8356363636363636 -5.658327272727273 0.9949090909090907Z" stroke-width="1"></path><path fill="#df2c2c" d="m18.847854545454542 32.51694545454545 -3.378763636363636 -3.378763636363636c2.8542545454545456 -7.877236363636363 6.584727272727273 -12.965236363636363 10.173381818181818 -15.850036363636363l8.94589090909091 8.945454545454545C31.678254545454546 25.79781818181818 26.6016 29.533090909090912 18.847854545454542 32.51738181818182Z" stroke-width="1"></path><path fill="#3e3e3f" d="m34.58836363636364 22.2336 -8.94589090909091 -8.945454545454545c4.45090909090909 -3.5838545454545447 8.691054545454545 -3.7745454545454544 10.760727272727273 -1.704872727272727 2.0810181818181817 2.080581818181818 1.8030545454545452 6.227345454545454 -1.8148363636363634 10.650327272727273Z" stroke-width="1"></path><path fill="#fa5655" d="M25.64247272727273 13.287272727272727C22.05381818181818 16.172072727272727 18.323345454545453 21.260072727272725 15.469090909090909 29.13730909090909l1.6712727272727272 1.6708363636363637 13.01149090909091 -13.011927272727272L25.64247272727273 13.287272727272727Z" stroke-width="1"></path><path fill="#5b5c5f" d="m25.64247272727273 13.287272727272727 4.509381818181818 4.509381818181818 6.23170909090909 -6.23170909090909c-2.0766545454545455 -2.0500363636363637 -6.303272727272727 -1.8506181818181815 -10.741090909090907 1.7223272727272727Z" stroke-width="1"></path></svg>