<svg xmlns="http://www.w3.org/2000/svg" fill="none" viewBox="0 0 48 48" id="Quill--Streamline-Kameleon.svg" height="48" width="48"><desc>Quill Streamline Icon: https://streamlinehq.com</desc><path fill="#e04f5f" d="M24 48c13.254850909090909 0 24 -10.745149090909091 24 -24S37.254850909090905 0 24 0 0 10.745149090909091 0 24s10.745149090909091 24 24 24Z" stroke-width="1"></path><path fill="#3e3e3f" d="M13.527272727272727 34.90904727272727c0 -0.8526545454545454 0.03141818181818182 -1.676509090909091 0.08552727272727273 -2.480290909090909L11.781818181818181 34.472683636363634l-1.7454545454545454 3.4909090909090907 3.0545454545454542 -0.8727272727272727 2.7656727272727273 -2.2564363636363636c-0.7588363636363636 0.04843636363636363 -1.5342545454545453 0.07461818181818182 -2.3293090909090908 0.07461818181818182Z" stroke-width="1"></path><path fill="#f0f1f1" d="M28.267636363636363 26.05090909090909c0.6021818181818182 0.24436363636363637 1.2218181818181817 0.4581818181818182 1.8676363636363638 0.6239999999999999 0.9163636363636364 0.24000000000000002 1.8327272727272728 0.3927272727272727 2.7447272727272725 0.46254545454545454l-0.008727272727272728 0.008727272727272728C32.64872727272727 27.294545454545453 29.070545454545456 29.672727272727272 24 29.672727272727272c1.3439999999999999 0.768 2.853818181818182 1.1956363636363636 4.276363636363636 1.44C24.42763636363636 33.53454545454545 19.479272727272726 34.90909090909091 13.527272727272727 34.90909090909091c0 -15.272727272727272 8.727272727272727 -22.69090909090909 24.436363636363634 -22.69090909090909 0 5.166545454545454 -1.3614545454545455 9.792 -3.975272727272727 13.492363636363637 -1.8283636363636364 0.46690909090909094 -3.765818181818182 0.5978181818181818 -5.720727272727272 0.34036363636363637Z" stroke-width="1"></path><path fill="#fff" d="M37.96363636363636 12.218181818181817c-15.709090909090909 0 -24.436363636363634 7.418181818181818 -24.436363636363634 22.69090909090909 0.6213818181818181 0 1.2288 -0.018327272727272727 1.8283636363636364 -0.048l22.607563636363633 -22.607563636363633c0 -0.011781818181818181 0.00043636363636363637 -0.023563636363636363 0.00043636363636363637 -0.03534545454545455Z" stroke-width="1"></path></svg>