<svg xmlns="http://www.w3.org/2000/svg" fill="none" viewBox="0 0 48 48" id="Color-Rgb--Streamline-Kameleon.svg" height="48" width="48"><desc>Color Rgb Streamline Icon: https://streamlinehq.com</desc><path fill="#ffad07" d="M24 48c13.254981818181818 0 24 -10.74501818181818 24 -24S37.25498181818182 0 24 0 0 10.74501818181818 0 24s10.74501818181818 24 24 24Z" stroke-width="1"></path><path fill="#17b198" d="M24.21469090909091 27.49090909090909c4.7458909090909085 0 8.592872727272727 -3.9072 8.592872727272727 -8.727272727272727s-3.8469818181818183 -8.727272727272727 -8.592872727272727 -8.727272727272727S15.62181818181818 13.943563636363637 15.62181818181818 18.763636363636362s3.8469818181818183 8.727272727272727 8.592872727272727 8.727272727272727Z" stroke-width="1"></path><path fill="#059bbf" d="M18.629236363636362 37.96363636363636c4.7458909090909085 0 8.592872727272727 -3.9072 8.592872727272727 -8.727272727272727s-3.8469818181818183 -8.727272727272727 -8.592872727272727 -8.727272727272727S10.036363636363635 24.416290909090907 10.036363636363635 29.236363636363635s3.8469818181818183 8.727272727272727 8.592872727272727 8.727272727272727Z" stroke-width="1"></path><path fill="#df2c2c" d="M29.370763636363638 37.96363636363636C34.116654545454544 37.96363636363636 37.96363636363636 34.056436363636365 37.96363636363636 29.236363636363635s-3.8469818181818183 -8.727272727272727 -8.592872727272727 -8.727272727272727 -8.592872727272727 3.9072 -8.592872727272727 8.727272727272727 3.8469818181818183 8.727272727272727 8.592872727272727 8.727272727272727Z" stroke-width="1"></path><path fill="#6fdaf1" d="M24 22.429090909090906c-1.3876363636363636 1.1214545454545453 -2.4187636363636362 2.679272727272727 -2.9088 4.464 -2.547927272727273 -1.0036363636363634 -4.498472727272727 -3.2116363636363636 -5.194472727272727 -5.9301818181818176A8.354181818181818 8.354181818181818 0 0 1 18.629236363636362 20.509090909090908c2.0325818181818183 0 3.901527272727273 0.7156363636363635 5.370763636363636 1.9200000000000002Z" stroke-width="1"></path><path fill="#fff" d="M26.9472 27.037090909090907A8.354181818181818 8.354181818181818 0 0 1 24.21469090909091 27.49090909090909c-1.100072727272727 0 -2.156945454545454 -0.20945454545454545 -3.123490909090909 -0.5978181818181818C21.581236363636364 25.108363636363634 22.612363636363636 23.550545454545453 24 22.429090909090906a8.69061818181818 8.69061818181818 0 0 1 2.9471999999999996 4.608Z" stroke-width="1"></path><path fill="#f37a10" d="M27.222545454545454 29.236363636363635c0 2.7578181818181817 -1.2545454545454544 5.214545454545454 -3.2225454545454544 6.807272727272727 -1.9679999999999997 -1.5927272727272725 -3.2225454545454544 -4.049454545454545 -3.2225454545454544 -6.807272727272727 0 -0.8116363636363636 0.10734545454545454 -1.5970909090909091 0.3137454545454545 -2.343272727272727 0.9669818181818182 0.38836363636363636 2.023854545454545 0.5978181818181818 3.123490909090909 0.5978181818181818 0.953890909090909 0 1.8733090909090908 -0.1570909090909091 2.7325090909090908 -0.4538181818181818 0.18065454545454543 0.7025454545454546 0.27534545454545456 1.44 0.27534545454545456 2.199272727272727Z" stroke-width="1"></path><path fill="#fbe158" d="M32.49425454545454 21.106909090909088c-0.7649454545454545 2.792727272727273 -2.857309090909091 5.018181818181818 -5.5466181818181814 5.9301818181818176 -0.47301818181818184 -1.845818181818182 -1.5211636363636363 -3.456 -2.9476363636363634 -4.608 1.4692363636363635 -1.2043636363636363 3.3381818181818184 -1.9200000000000002 5.370763636363636 -1.9200000000000002 1.0996363636363635 0 2.1565090909090907 0.20945454545454545 3.123490909090909 0.5978181818181818Z" stroke-width="1"></path></svg>